<?xml version="1.0" standalone="no"?>
<!DOCTYPE svg PUBLIC "-//W3C//DTD SVG 20010904//EN"
 "http://www.w3.org/TR/2001/REC-SVG-20010904/DTD/svg10.dtd">
<svg version="1.0" xmlns="http://www.w3.org/2000/svg"
 width="330.000000pt" height="150.000000pt" viewBox="0 0 330.000000 150.000000"
 preserveAspectRatio="xMidYMid meet">

<g transform="translate(0.000000,150.000000) scale(0.100000,-0.100000)"
fill="#000000" stroke="none">
<path d="M762 1203 c-30 -24 -36 -25 -71 -14 -54 16 -55 15 -79 -28 -24 -43
-38 -51 -87 -51 -33 0 -34 -1 -42 -52 -7 -48 -12 -55 -50 -76 l-42 -23 14 -47
c14 -46 14 -47 -15 -84 -17 -20 -30 -40 -30 -45 1 -4 14 -23 30 -42 28 -33 28
-34 14 -80 -15 -51 -16 -49 44 -82 24 -14 30 -25 36 -68 7 -50 7 -51 41 -51
49 0 62 -8 87 -52 17 -30 27 -38 43 -35 82 19 81 19 112 -7 38 -32 48 -32 86
0 31 26 30 26 112 7 16 -3 26 5 43 35 24 44 38 52 87 52 33 0 34 1 42 52 7 48
12 55 50 76 l42 23 -14 47 c-8 26 -15 48 -15 49 0 1 14 18 31 38 34 38 35 30
-16 101 -13 18 -13 26 -1 67 l14 47 -41 22 c-38 21 -43 28 -50 76 -8 51 -9 52
-42 52 -49 0 -63 8 -87 51 -24 43 -25 44 -79 28 -35 -11 -41 -10 -73 15 -43
32 -52 32 -94 -1z m17 -205 c1 31 29 28 41 -4 7 -18 7 -31 0 -40 -9 -10 -3
-15 30 -25 36 -11 41 -16 38 -38 -2 -18 -10 -27 -24 -29 -34 -5 -56 -35 -46
-63 4 -13 8 -39 8 -56 -1 -38 4 -40 29 -13 30 33 59 22 63 -22 3 -29 -1 -40
-20 -52 -28 -18 -114 -15 -110 3 1 7 -2 10 -7 7 -5 -4 -17 1 -25 10 -20 19
-22 114 -3 133 10 11 10 14 0 18 -7 3 -13 14 -13 24 0 11 -4 18 -9 15 -4 -3
-14 7 -20 22 -11 24 -10 28 8 41 12 7 21 19 21 27 0 7 5 25 11 41 l12 28 7
-25 c8 -24 8 -24 9 -2z"/>
<path d="M757 773 c-11 -10 -8 -43 3 -43 6 0 10 11 10 25 0 26 -2 29 -13 18z"/>
<path d="M1590 855 c0 -32 2 -35 30 -35 l30 0 0 -95 0 -95 35 0 35 0 0 95 c0
95 0 95 25 95 22 0 25 4 25 35 l0 35 -90 0 -90 0 0 -35z"/>
<path d="M1800 760 l0 -130 35 0 c32 0 35 2 35 31 0 27 3 30 28 27 21 -2 28
-9 30 -30 3 -25 8 -28 38 -28 32 0 34 2 34 32 0 17 -7 39 -15 48 -14 15 -14
18 0 30 9 7 15 29 15 52 0 30 -7 46 -29 69 -27 27 -35 29 -100 29 l-71 0 0
-130z m124 44 c8 -21 -11 -44 -35 -44 -14 0 -19 7 -19 30 0 25 4 30 24 30 13
0 27 -7 30 -16z"/>
<path d="M2050 760 l0 -130 40 0 40 0 0 130 0 130 -40 0 -40 0 0 -130z"/>
<path d="M2206 813 c36 -65 44 -87 44 -130 l0 -53 35 0 35 0 0 56 c0 47 6 66
40 124 22 38 40 71 40 74 0 3 -17 6 -39 6 -34 0 -40 -4 -51 -30 -18 -44 -28
-45 -47 -6 -15 33 -20 36 -59 36 l-43 0 45 -77z"/>
<path d="M2420 886 c0 -2 18 -35 40 -74 34 -58 40 -78 40 -126 l0 -56 35 0 35
0 0 53 c0 32 7 63 18 82 10 17 30 51 45 78 l28 47 -44 0 c-40 0 -44 -2 -56
-35 -7 -19 -16 -35 -20 -35 -4 0 -15 16 -24 35 -15 31 -21 35 -57 35 -22 0
-40 -2 -40 -4z"/>
<path d="M2705 865 c-52 -51 -15 -135 60 -135 24 0 35 -4 35 -15 0 -12 -13
-15 -55 -15 l-55 0 0 -35 0 -35 59 0 c49 0 65 4 90 26 61 51 26 144 -54 144
-19 0 -35 5 -35 10 0 6 20 10 45 10 45 0 45 0 45 35 l0 35 -55 0 c-46 0 -60
-4 -80 -25z"/>
</g>
</svg>
